<svg width="16" height="18" viewBox="0 0 16 18" fill="none" xmlns="http://www.w3.org/2000/svg">
<path d="M13.1339 4H5.86607C4.83547 4 4 4.98737 4 6.20536V14.7946C4 16.0126 4.83547 17 5.86607 17H13.1339C14.1645 17 15 16.0126 15 14.7946V6.20536C15 4.98737 14.1645 4 13.1339 4Z" stroke="white" stroke-linejoin="round"/>
<path d="M11.9836 3.59524L12 2.66667C11.9986 2.09253 11.805 1.54238 11.4615 1.13641C11.118 0.730431 10.6525 0.501633 10.1667 0.5H3.09524C2.54005 0.501939 2.00807 0.763446 1.61549 1.2274C1.22292 1.69136 1.00164 2.32006 1 2.97619V11.3333C1.00138 11.9075 1.19498 12.4576 1.5385 12.8636C1.88202 13.2696 2.34753 13.4984 2.83333 13.5H3.61905" stroke="white" stroke-linecap="round" stroke-linejoin="round"/>
</svg>
